<svg width="4785" height="1085" viewBox="0 0 4785 1085" fill="none" xmlns="http://www.w3.org/2000/svg">
<path d="M2512.84 312.865C2593.67 238.624 2681.09 216.65 2779.08 237.591C2855.6 253.943 2892.89 303.112 2890.31 381.025C2889.22 413.671 2881.7 445.283 2872.76 476.552C2842.52 582.062 2812.41 687.572 2782.06 793.024C2764.56 853.955 2733.35 877.65 2669.96 878.281C2643.23 878.568 2616.44 878.568 2589.65 878.281C2528.04 877.65 2509.28 852.291 2526.32 792.164C2550.7 705.874 2575.54 619.699 2599.69 533.294C2605.66 511.894 2620 487.396 2596.82 469.667C2575.37 453.258 2548.92 459.168 2525.52 468.52C2481.11 486.248 2457.42 523.656 2443.6 566.341C2420.99 636.222 2401.37 707.021 2380.95 777.591C2356.92 860.61 2333.51 878.339 2246.14 878.339C2222.22 878.339 2198.3 879.142 2174.49 878.052C2124.24 875.642 2105.65 851.086 2117.98 802.204C2127.56 764.28 2139.44 726.987 2150.17 689.35C2207.53 488.428 2264.73 287.506 2322.15 86.584C2339.48 25.9402 2368.56 2.87605 2430.98 0.695855C2459.6 -0.279495 2488.34 -0.164804 2516.97 0.638425C2576.46 2.35963 2594.76 26.055 2579.15 83.199C2560.8 150.383 2540.83 217.166 2521.56 284.121C2519.49 291.293 2517.25 298.35 2512.84 312.865Z" fill="#F9FCFC"/>
<path d="M1244 780.343C1179.64 858.657 1100.24 884.476 1007.94 876.616C890.683 866.633 837.791 799.218 864.237 683.496C886.323 586.936 916.326 492.155 942.944 396.628C951.147 367.253 959.523 337.878 968.357 308.675C984.42 255.662 1015.57 231.565 1070.81 230.188C1102.31 229.385 1133.92 229.499 1165.41 230.13C1218.88 231.221 1238.32 256.522 1224.21 308.216C1204.13 381.826 1182.62 455.092 1161.68 528.473C1155.43 550.504 1148.37 572.306 1142.92 594.51C1134.26 629.68 1147.05 645.458 1182.62 646.031C1220.6 646.662 1247.85 627.729 1269.47 598.756C1290.99 569.954 1302.52 536.505 1312.27 502.483C1329.94 441.036 1347.21 379.474 1364.7 317.969C1383 253.711 1413.81 230.303 1480.52 229.958C1509.21 229.844 1537.89 229.27 1566.52 230.13C1619.29 231.794 1637.82 255.317 1623.71 306.495C1587.11 438.913 1549.02 570.872 1511.45 703.061C1503.07 732.436 1495.21 761.983 1485.69 790.957C1470.14 838.29 1437.27 862.444 1387.36 863.764C1360.63 864.51 1333.84 864.165 1307.11 863.878C1249.74 863.362 1233.22 843.74 1244 780.343Z" fill="#F9FCFC"/>
<path d="M3899.21 782.294C3881.02 797.498 3863.64 813.448 3844.88 827.504C3789.18 869.329 3725.45 882.525 3657.81 872.829C3566.48 859.748 3522.14 782.236 3548.64 686.078C3569.35 611.091 3622.24 565.077 3689.54 533.407C3768.59 496.172 3853.09 482.632 3939.6 481.427C3960.25 481.14 3973.1 476.034 3974.76 454.634C3976.48 432.545 3961.11 424.398 3943.09 421.07C3901.39 413.439 3861.63 423.652 3822.28 436.217C3803.29 442.298 3784.88 449.872 3764.23 450.675C3738.24 451.65 3721.95 440.347 3715.12 416.193C3707.83 390.433 3703.3 363.983 3705.94 337.018C3708.93 306.552 3726.31 284.578 3752.7 272.874C3856.7 226.746 3965.12 202.591 4078.54 226.344C4199.58 251.703 4253.45 337.362 4222.93 458.076C4194.93 568.864 4161.32 678.218 4129.71 788.089C4116.97 832.323 4086.97 857.797 4041.08 861.297C4011.65 863.535 3981.76 863.649 3952.33 861.527C3916.25 858.887 3902.25 841.388 3901.62 805.301C3901.56 798.071 3905.58 790.326 3899.21 782.294ZM3907.36 605.009C3871.79 608.739 3835.59 611.321 3804.67 633.065C3786.71 645.687 3775.93 662.957 3785.34 684.414C3793.71 703.577 3813.22 706.561 3831.86 703.52C3875.12 696.52 3906.67 672.997 3925.37 632.893C3934.03 614.189 3935.06 600.706 3907.36 605.009Z" fill="#21B537"/>
<path d="M4608.43 72.9295C4626.62 72.9295 4644.8 72.2411 4662.87 73.0443C4702.23 74.7655 4720.47 97.3707 4711.86 135.926C4705.21 165.645 4696.32 194.906 4686.97 223.937C4680.37 244.419 4681.4 254.402 4707.73 254.746C4783.34 255.722 4796.94 275.401 4776.34 348.093C4774.51 354.519 4772.56 360.887 4770.66 367.256C4753.97 422.736 4723.97 448.324 4666.49 445.743C4631.44 444.136 4617.73 457.275 4610.9 489.174C4602.75 527.328 4589.85 564.449 4580.09 602.315C4572.12 633.182 4584.63 651.828 4615.89 658.426C4684.96 673.057 4687.83 677.876 4668.5 746.265C4663.33 764.625 4658.34 782.984 4653.01 801.286C4639.98 846.21 4608.15 869.159 4563.34 873.577C4516.47 878.224 4469.89 874.839 4424.52 860.783C4327.51 830.719 4286.95 760.379 4312.14 661.582C4328.14 598.815 4346.78 536.737 4365.08 474.602C4370.42 456.529 4368.87 447.751 4347.13 444.652C4311.62 439.661 4299.11 419.236 4306.63 383.55C4310.53 364.903 4315.06 346.314 4320.97 328.242C4334.91 285.498 4361.81 257.041 4409.43 255.664C4429.85 255.09 4440.18 247.173 4444.31 226.691C4449.36 201.504 4457.27 176.89 4464.56 152.22C4481.37 95.3052 4511.43 72.9869 4571.09 72.6427C4583.54 72.5853 4595.93 72.6427 4608.37 72.6427C4608.43 72.7574 4608.43 72.8147 4608.43 72.9295Z" fill="#21B537"/>
<path d="M3299.5 598.872C3255.56 598.872 3211.56 599.962 3167.62 598.47C3141.4 597.609 3141.06 608.855 3149.32 627.731C3163.43 660.032 3207.77 680.113 3255.1 674.375C3283.5 670.933 3311.55 665.54 3338.51 655.212C3351.82 650.106 3365.76 646.434 3379.7 643.566C3399.21 639.55 3419 644.369 3426.68 662.499C3455.31 729.454 3463.34 794.86 3379.7 829.456C3275.75 872.429 3168.94 890.96 3058.28 862.675C2951.35 835.308 2889.16 746.781 2895.36 636.566C2908.95 394.909 3131.71 206.838 3371.44 234.665C3507 250.385 3574.06 356.182 3541.82 500.189C3527.36 564.735 3470.97 604.552 3416.99 599.56C3378.1 595.946 3338.69 598.814 3299.5 598.872ZM3246.9 477.986C3246.9 477.871 3246.9 477.814 3246.9 477.699C3263.08 477.699 3279.2 477.871 3295.37 477.641C3303.06 477.527 3311.38 477.125 3314.42 468.29C3325.61 435.759 3313.85 396.86 3274.78 397.433C3242.48 397.95 3218.27 412.178 3200.37 437.71C3193.03 448.152 3180.35 460.831 3186.66 472.593C3192.4 483.379 3209.32 477.01 3221.31 477.814C3229.75 478.445 3238.35 477.986 3246.9 477.986Z" fill="#21B537"/>
<path d="M1772.46 878.451C1706.38 877.074 1646.43 867.32 1590.96 838.634C1540.42 812.529 1532.27 777.014 1566.63 731.288C1580.34 713.043 1596.35 696.405 1612.13 679.824C1649.13 640.867 1681.42 634.441 1730.87 656.243C1758.93 668.636 1786.81 681.316 1818.24 681.258C1827.65 681.201 1837.4 680.398 1846.47 678.045C1857.19 675.234 1865.97 667.66 1866.6 656.243C1867.23 644.883 1856.85 640.236 1847.84 637.597C1822.2 630.195 1796.21 623.999 1770.4 617.114C1647.75 584.411 1612.3 511.834 1662.44 394.964C1691.41 327.378 1742.63 281.365 1808.61 252.334C1915.65 205.23 2025.45 203.509 2135.65 240.4C2192.33 259.391 2203.34 296.454 2170.59 347.057C2169.04 349.467 2167.43 351.877 2165.65 354.114C2108.06 426.692 2098.54 467.025 1978.7 419.692C1958.27 411.66 1936.07 408.39 1913.87 411.603C1900.91 413.496 1888.98 419.176 1886.97 433.405C1884.73 449.182 1899.47 451.477 1909.63 454.403C1941.7 463.583 1974.74 469.665 2006.52 479.705C2102.55 510.113 2133.87 569.781 2101.52 664.964C2062.11 781.031 1974.11 841.732 1859.26 869.214C1829.37 876.271 1798.74 877.648 1772.46 878.451Z" fill="#F9FCFC"/>
<path d="M651.825 195.063C553.745 192.291 446.837 192.638 365.195 194.197L337.554 194.832C334.448 194.912 331.417 195.758 328.76 197.286C326.103 198.814 323.911 200.972 322.4 203.548C320.888 206.124 320.11 209.028 320.141 211.976C320.172 214.923 321.012 217.813 322.578 220.359C328.059 228.178 331.713 237.02 333.293 246.29C334.548 258.073 330.923 269.857 323.186 279.151C306.2 298.845 281.239 291.049 261.757 307.046C244.284 321.427 240.205 349.09 248.972 363.182C257.739 377.273 275.151 381.027 292.015 383.222C308.879 385.417 326.718 386.86 338.529 397.545C350.34 408.229 353.627 432.196 340.111 451.139C335.289 458.357 328.452 464.165 320.358 467.917C312.265 471.668 303.233 473.218 294.268 472.392C279.717 470.371 268.515 461.593 256.217 455.066C249.855 451.077 242.555 448.637 234.962 447.962C227.369 447.287 219.718 448.398 212.686 451.197C196.309 458.185 179.749 480.362 183.098 495.956C185.046 505.427 193.204 509.643 199.414 515.303C203.188 518.647 205.707 523.069 206.586 527.896C207.465 532.723 206.657 537.691 204.285 542.042C195.152 559.022 174.818 556.018 159.719 566.298C143.646 577.214 137.497 602.567 144.499 615.735C151.5 628.902 167.268 632.252 183.037 631.848C198.805 631.444 215.487 628.036 230.159 630.462C237.88 631.272 244.994 634.814 250.084 640.38C255.173 645.947 257.863 653.129 257.617 660.493C257.617 682.151 236.613 706.984 216.217 716.051C207.369 719.778 197.775 721.641 188.095 721.512C178.414 721.382 168.879 719.263 160.145 715.301C146.751 709.872 133.601 702.306 117.041 706.06C100.481 709.814 80.2077 731.472 83.4344 747.585C85.5044 757.922 95.6108 760.983 105.839 761.272C116.067 761.561 126.843 760.059 134.514 764.968C142.185 769.877 144.255 784.546 135.245 794.364C124.347 806.319 108.457 800.486 97.0111 811.69C93.1991 815.467 90.718 820.275 89.9109 825.448C89.1039 830.621 90.0106 835.904 92.5058 840.567C97.4981 847.497 106.448 849.287 114.971 850.904L229.672 872.157C247.328 875.391 267.845 884.343 262.061 906.809C260.373 913.009 257.329 918.803 253.127 923.815C248.926 928.827 243.661 932.945 237.673 935.902C231.685 938.859 225.109 940.589 218.371 940.98C211.633 941.37 204.884 940.413 198.562 938.169C176.888 932.394 157.893 920.843 136.523 914.317C124.849 910.307 112.436 908.598 100.042 909.293C87.6482 909.988 75.5339 913.073 64.4394 918.36C46.6457 927.47 31.8861 941.111 21.8223 957.747C13.6679 971.818 8.20566 987.147 5.68866 1003.03C4.16662 1010.94 3.07071 1018.91 2.21836 1026.93C0.450193 1034.91 -0.265537 1043.05 0.087561 1051.19C4.89721 1077.64 43.557 1084.63 66.0832 1084.63H166.477C220.479 1084.63 256.46 1056.5 268.21 1005.28L302.487 855.12C311.375 816.022 314.663 789.167 314.663 789.167H317.22C317.22 789.167 326.109 817.061 364.89 836.582C385.773 847.035 415.239 855.12 456.578 855.12C635.448 855.12 800.316 724.541 846.221 524.37C852.77 496.291 856.561 467.697 857.545 438.954C859.432 368.553 840.132 300.693 792.097 254.145C755.106 218.048 704.859 196.885 651.825 195.063ZM576.515 530.03C559.224 605.686 500.839 647.21 446.776 647.21C388.817 647.21 365.316 609.267 365.316 563.988C365.443 552.559 366.851 541.176 369.517 530.03C389.304 443.4 448.116 405.515 500.839 405.515C562.329 405.226 593.379 455.298 576.515 530.03Z" fill="#F9FCFC"/>
</svg>
